<?xml version="1.0" standalone="no"?>
<!DOCTYPE svg PUBLIC "-//W3C//DTD SVG 20010904//EN"
 "http://www.w3.org/TR/2001/REC-SVG-20010904/DTD/svg10.dtd">
<svg version="1.0" xmlns="http://www.w3.org/2000/svg"
 width="667.000000pt" height="667.000000pt" viewBox="0 0 667.000000 667.000000"
 preserveAspectRatio="xMidYMid meet">
<metadata>
Created by potrace 1.14, written by Peter Selinger 2001-2017
</metadata>
<g transform="translate(0.000000,667.000000) scale(0.100000,-0.100000)"
fill="#000000" stroke="none">
<path d="M2960 6645 c0 -12 -16 -15 -80 -15 -64 0 -80 -3 -80 -15 0 -11 -11
-15 -40 -15 -29 0 -40 4 -40 15 0 11 -11 15 -40 15 -36 0 -40 -2 -40 -25 0
-25 -1 -25 -80 -25 l-80 0 0 -30 0 -30 -80 0 c-47 0 -80 -4 -80 -10 0 -5 -18
-10 -40 -10 -38 0 -40 -2 -40 -30 l0 -30 -80 0 c-47 0 -80 -4 -80 -10 0 -5
-18 -10 -40 -10 -38 0 -40 -2 -40 -30 0 -28 -2 -30 -40 -30 -22 0 -40 -4 -40
-10 0 -5 -18 -10 -39 -10 -22 0 -41 -5 -43 -10 -2 -6 -21 -12 -43 -14 -37 -2
-40 -5 -38 -29 2 -25 -1 -27 -38 -27 -28 0 -39 -4 -39 -15 0 -9 9 -15 22 -15
21 0 21 -1 5 -17 -12 -12 -30 -16 -62 -14 -40 2 -45 0 -45 -19 0 -11 -8 -23
-17 -27 -29 -10 -63 -45 -63 -65 0 -10 -7 -18 -17 -18 -9 0 -25 -8 -35 -17
-13 -12 -33 -16 -63 -14 -39 2 -45 0 -45 -17 0 -21 -18 -32 -55 -32 -19 0 -24
-7 -29 -40 -4 -23 -12 -40 -19 -40 -8 0 -24 -11 -37 -25 -17 -18 -34 -25 -61
-25 -33 0 -38 -3 -44 -29 -3 -15 -5 -32 -4 -37 4 -24 -2 -44 -14 -44 -8 0 -24
-11 -37 -25 -17 -18 -34 -25 -61 -25 -33 0 -38 -3 -44 -29 -3 -15 -5 -32 -4
-37 4 -24 -2 -44 -14 -44 -8 0 -24 -11 -37 -25 -17 -18 -34 -25 -62 -25 -27 0
-38 -4 -38 -15 0 -8 -7 -15 -15 -15 -11 0 -15 -11 -15 -38 0 -28 -7 -45 -25
-62 -14 -13 -25 -29 -25 -35 0 -20 -91 -105 -112 -105 -17 0 -19 -6 -17 -45 2
-30 -2 -50 -14 -63 -9 -10 -17 -23 -17 -29 0 -6 -21 -31 -46 -57 -37 -36 -54
-46 -80 -46 -33 0 -34 -1 -34 -40 0 -29 -4 -40 -15 -40 -11 0 -15 -11 -15 -40
0 -22 -4 -40 -10 -40 -5 0 -10 -18 -10 -40 0 -38 -2 -40 -30 -40 -28 0 -30 -2
-30 -40 0 -22 -4 -40 -10 -40 -5 0 -10 -18 -10 -40 0 -29 -4 -40 -15 -40 -11
0 -15 -11 -15 -40 0 -29 -4 -40 -15 -40 -11 0 -15 -11 -15 -40 0 -22 -4 -40
-10 -40 -5 0 -10 -18 -10 -40 0 -29 -4 -40 -15 -40 -11 0 -15 -11 -15 -40 0
-29 -4 -40 -15 -40 -11 0 -15 -11 -15 -40 0 -22 -4 -40 -10 -40 -6 0 -10 -33
-10 -80 0 -64 -3 -80 -15 -80 -11 0 -15 -11 -15 -40 0 -29 -4 -40 -15 -40 -11
0 -15 -11 -15 -40 0 -22 -4 -40 -10 -40 -6 0 -10 -47 -10 -120 0 -100 -2 -120
-15 -120 -11 0 -15 -11 -15 -40 0 -29 4 -40 15 -40 11 0 15 -11 15 -40 0 -29
-4 -40 -15 -40 -12 0 -15 -16 -15 -80 0 -64 3 -80 15 -80 11 0 15 -11 15 -40
0 -29 -4 -40 -15 -40 -12 0 -15 -16 -15 -80 0 -64 3 -80 15 -80 13 0 15 -24
15 -160 0 -100 4 -160 10 -160 6 0 10 -33 10 -80 0 -64 3 -80 15 -80 11 0 15
-11 15 -40 0 -29 4 -40 15 -40 12 0 15 -16 15 -80 0 -47 4 -80 10 -80 6 0 10
-18 10 -40 0 -38 2 -40 30 -40 28 0 30 -2 30 -40 0 -29 -4 -40 -15 -40 -11 0
-15 -11 -15 -40 0 -36 3 -40 25 -40 23 0 25 -4 25 -40 0 -38 2 -40 30 -40 28
0 30 -2 30 -40 0 -22 5 -40 10 -40 6 0 10 -18 10 -40 0 -29 4 -40 15 -40 11 0
15 -11 15 -40 0 -36 3 -40 25 -40 23 0 25 -4 25 -41 0 -32 3 -40 18 -38 37 3
42 -1 42 -41 0 -22 5 -40 10 -40 6 0 10 -18 10 -40 0 -29 4 -40 15 -40 11 0
15 -11 15 -40 l0 -40 40 0 40 0 0 -40 0 -40 40 0 c31 0 40 -4 40 -17 0 -9 10
-27 22 -40 l21 -23 -21 0 c-19 0 -22 -6 -22 -41 l0 -41 43 2 c67 3 67 3 67
-40 l0 -40 40 0 40 0 0 -40 c0 -32 4 -40 19 -40 20 0 111 -85 111 -105 0 -17
43 -55 63 -55 11 0 17 -8 17 -25 0 -22 4 -25 40 -25 35 0 40 -3 40 -22 0 -23
138 -171 156 -167 5 1 26 1 47 0 28 -1 37 -5 37 -18 0 -9 10 -27 22 -40 l21
-23 -21 0 c-13 0 -22 -6 -22 -15 0 -11 11 -15 40 -15 22 0 40 -4 40 -10 0 -5
18 -10 40 -10 43 0 43 0 40 -67 l-2 -43 41 0 c30 0 41 -4 41 -15 0 -11 11 -15
40 -15 22 0 40 -5 40 -11 0 -6 18 -9 45 -8 32 2 50 -2 62 -14 16 -16 16 -17
-5 -17 -13 0 -22 -6 -22 -15 0 -11 11 -15 40 -15 22 0 40 -4 40 -10 0 -5 18
-10 40 -10 38 0 40 -2 40 -30 0 -28 2 -30 40 -30 22 0 40 -4 40 -10 0 -5 18
-10 40 -10 29 0 40 -4 40 -15 0 -11 11 -15 40 -15 29 0 40 -4 40 -15 0 -11 11
-15 40 -15 22 0 40 -4 40 -10 0 -5 18 -10 40 -10 29 0 40 -4 40 -15 0 -11 11
-15 40 -15 29 0 40 -4 40 -15 0 -11 11 -15 40 -15 22 0 40 -4 40 -10 0 -6 33
-10 80 -10 64 0 80 -3 80 -15 0 -11 11 -15 40 -15 29 0 40 -4 40 -15 0 -12 20
-15 120 -15 73 0 120 -4 120 -10 0 -7 580 -10 1720 -10 1140 0 1720 3 1720 10
0 6 18 10 40 10 29 0 40 4 40 15 0 11 11 15 40 15 l40 0 0 40 0 40 40 0 40 0
0 40 c0 29 -4 40 -15 40 -13 0 -15 24 -15 160 0 100 -4 160 -10 160 -5 0 -10
18 -10 40 0 38 -2 40 -30 40 -28 0 -30 2 -30 40 0 22 -4 40 -10 40 -5 0 -10
18 -10 40 l0 40 -55 0 c-45 0 -55 3 -55 17 0 9 -10 27 -22 40 l-21 23 21 0
c19 0 22 6 22 40 l0 40 -40 0 c-29 0 -40 4 -40 15 0 11 -11 15 -38 15 -28 0
-45 7 -62 25 -13 14 -32 25 -42 25 -14 0 -18 8 -18 40 l0 40 -40 0 c-29 0 -40
4 -40 15 0 11 -11 15 -40 15 -22 0 -40 5 -40 10 0 6 -18 10 -39 10 -45 0 -47
4 -43 65 l4 45 40 0 40 0 -2 43 c-4 88 -4 87 40 87 l40 0 0 55 c0 52 1 55 25
55 23 0 25 4 25 40 0 38 2 40 30 40 28 0 30 2 30 40 0 36 3 40 25 40 23 0 25
4 25 40 0 36 3 40 25 40 23 0 25 4 25 40 0 29 4 40 15 40 11 0 15 11 15 40 0
36 3 40 25 40 25 0 25 1 25 80 l0 80 30 0 c28 0 30 2 30 40 0 22 5 40 10 40 6
0 10 18 10 40 0 38 2 40 30 40 l30 0 0 80 c0 47 4 80 10 80 6 0 10 18 10 40 0
29 4 40 15 40 11 0 15 11 15 40 0 29 4 40 15 40 11 0 15 11 15 40 0 29 -4 40
-15 40 -11 0 -15 11 -15 40 l0 40 40 0 40 0 0 40 c0 29 -4 40 -15 40 -11 0
-15 11 -15 40 0 29 4 40 15 40 12 0 15 16 15 80 0 64 3 80 15 80 13 0 15 42
15 320 0 278 -2 320 -15 320 -12 0 -15 16 -15 80 0 64 -3 80 -15 80 -12 0 -15
16 -15 80 0 79 0 80 -25 80 -22 0 -25 4 -25 40 0 29 4 40 15 40 11 0 15 11 15
40 0 38 -2 40 -30 40 l-30 0 0 80 c0 47 -4 80 -10 80 -5 0 -10 18 -10 40 0 29
-4 40 -15 40 -11 0 -15 11 -15 40 0 29 -4 40 -15 40 -11 0 -15 11 -15 40 0 22
-4 40 -10 40 -5 0 -10 18 -10 40 0 38 -2 40 -30 40 -28 0 -30 2 -30 40 0 22
-4 40 -10 40 -5 0 -10 18 -10 41 0 32 -3 40 -17 38 -38 -3 -43 1 -43 41 0 22
-4 40 -10 40 -5 0 -10 18 -10 41 0 32 -3 40 -17 38 -38 -3 -43 1 -43 41 0 22
-4 40 -10 40 -5 0 -10 18 -10 40 0 38 -2 40 -30 40 -28 0 -30 2 -30 40 0 32
-4 40 -19 40 -20 0 -111 85 -111 105 0 17 -43 55 -63 55 -13 0 -17 9 -17 35 0
22 -6 38 -15 41 -10 4 -15 20 -15 45 0 31 -4 39 -19 39 -10 0 -39 21 -65 46
-36 37 -46 54 -46 80 0 32 -2 34 -34 34 -26 0 -43 10 -80 46 -25 26 -46 55
-46 65 0 15 -8 19 -40 19 -42 0 -44 3 -40 53 1 25 -1 27 -39 27 -41 0 -45 5
-42 43 2 13 -6 17 -37 17 -28 0 -45 7 -62 25 l-23 25 21 0 c13 0 22 6 22 15 0
11 -11 15 -40 15 -22 0 -40 5 -40 10 0 6 -18 10 -40 10 -43 0 -43 0 -40 68 l2
42 -41 0 c-30 0 -41 4 -41 15 0 11 -11 15 -40 15 -22 0 -40 5 -40 10 0 6 -18
10 -40 10 -40 0 -44 5 -41 43 2 14 -6 17 -38 17 -23 0 -41 5 -41 10 0 6 -18
10 -40 10 -40 0 -44 5 -41 43 2 14 -6 17 -38 17 -23 0 -41 5 -41 10 0 6 -18
10 -40 10 -38 0 -40 2 -40 30 0 28 -2 30 -40 30 -22 0 -40 5 -40 10 0 6 -18
10 -40 10 -29 0 -40 4 -40 15 0 11 -11 15 -40 15 -29 0 -40 4 -40 15 0 11 -11
15 -40 15 -22 0 -40 5 -40 10 0 6 -18 10 -40 10 -29 0 -40 4 -40 15 0 11 -11
15 -40 15 -29 0 -40 4 -40 15 0 12 -16 15 -80 15 -79 0 -80 0 -80 25 0 23 -4
25 -40 25 -29 0 -40 -4 -40 -15 0 -11 -11 -15 -40 -15 -29 0 -40 4 -40 15 0
12 -16 15 -80 15 -64 0 -80 3 -80 15 0 13 -47 15 -360 15 -313 0 -360 -2 -360
-15z m579 -161 c2 -2 -37 -4 -87 -4 -85 0 -92 -1 -92 -20 0 -17 7 -20 40 -20
36 0 40 -2 40 -25 0 -20 5 -25 25 -25 23 0 25 -4 25 -40 0 -29 4 -40 15 -40 8
0 15 -7 15 -15 0 -11 11 -15 40 -15 l40 0 0 -41 0 -42 56 6 c59 6 84 -5 84
-37 0 -9 5 -16 10 -16 6 0 10 -25 10 -56 l0 -57 56 6 c59 6 84 -5 84 -36 0
-26 -44 -15 -51 13 -5 19 -7 15 -8 -17 l-1 -43 40 0 40 0 0 -41 0 -42 56 6
c41 4 60 2 70 -8 21 -21 17 -35 -10 -35 -18 0 -26 7 -29 23 -4 19 -4 18 -6 -5
-1 -20 4 -28 17 -29 16 -1 16 -2 0 -6 -19 -5 -25 -23 -8 -23 5 0 21 5 35 12
28 12 48 3 25 -13 -13 -8 -13 -10 0 -19 8 -5 12 -10 8 -10 -8 0 -240 54 -298
70 -133 35 -559 48 -745 22 -364 -51 -676 -158 -959 -329 -98 -60 -226 -145
-247 -165 -8 -7 -39 -33 -69 -58 -90 -73 -133 -115 -295 -284 -90 -94 -255
-344 -345 -525 -237 -474 -311 -1061 -200 -1591 10 -52 19 -105 20 -117 0 -13
4 -23 9 -23 6 0 13 -21 17 -47 3 -27 13 -63 21 -81 10 -20 13 -44 9 -63 -5
-29 -4 -30 11 -18 15 12 16 12 10 -4 -4 -10 -7 -25 -7 -34 0 -8 -6 -13 -12
-11 -15 5 -36 70 -37 116 -1 31 -3 32 -41 32 -36 0 -40 3 -40 25 0 20 -5 25
-25 25 -22 0 -25 4 -25 40 0 27 -4 39 -13 37 -7 -1 -13 10 -15 26 -3 24 -7 27
-43 27 -32 0 -40 3 -38 18 5 55 1 62 -42 62 -32 0 -40 3 -38 18 3 37 -1 42
-42 42 -38 0 -40 2 -39 28 5 69 3 72 -41 72 -32 0 -40 3 -38 18 5 55 1 62 -42
62 -32 0 -40 3 -38 18 3 37 -1 42 -42 42 -40 0 -41 1 -37 29 2 17 1 28 -3 26
-3 -3 -10 14 -14 38 l-7 42 -18 -65 c-17 -61 -18 -63 -19 -26 -1 21 -6 56 -13
77 -26 87 26 601 84 834 165 666 537 1236 1103 1690 129 104 406 273 555 340
47 20 105 47 130 58 129 57 374 133 555 171 141 29 318 51 485 59 74 4 374 -3
379 -9z m-19 -34 c0 -24 -6 -25 -26 -6 -19 20 -18 26 6 26 13 0 20 -7 20 -20z
m46 -94 c22 -22 17 -42 -10 -42 -19 0 -25 6 -28 28 -5 31 13 38 38 14z m114
-66 c0 -24 -6 -25 -26 -6 -19 20 -18 26 6 26 13 0 20 -7 20 -20z m160 -160 c0
-24 -6 -25 -26 -6 -19 20 -18 26 6 26 13 0 20 -7 20 -20z m160 -160 c0 -24 -6
-25 -26 -6 -19 20 -18 26 6 26 13 0 20 -7 20 -20z m147 -156 c-3 -3 -12 -4
-19 -1 -8 3 -5 6 6 6 11 1 17 -2 13 -5z m78 -91 c19 -14 19 -15 -5 -8 -33 10
-110 44 -110 50 0 7 94 -28 115 -42z m152 -59 c-3 -3 -12 -4 -19 -1 -8 3 -5 6
6 6 11 1 17 -2 13 -5z m70 0 c-3 -3 -12 -4 -19 -1 -8 3 -5 6 6 6 11 1 17 -2
13 -5z m13 -44 c0 -5 -2 -10 -4 -10 -3 0 -8 5 -11 10 -3 6 -1 10 4 10 6 0 11
-4 11 -10z m-815 -34 c169 -30 365 -83 485 -132 95 -39 312 -154 387 -204 102
-69 237 -177 291 -232 l42 -44 -186 -187 -187 -186 -49 42 c-232 200 -436 309
-714 382 -193 51 -527 58 -728 15 -601 -129 -1082 -571 -1248 -1144 -42 -146
-59 -253 -65 -407 -18 -430 144 -864 437 -1178 17 -18 29 -38 28 -43 -2 -5
-86 -93 -188 -194 l-184 -184 -24 23 c-54 50 -180 209 -248 312 -513 782 -476
1794 94 2540 231 302 566 554 922 693 205 80 364 118 620 146 79 9 429 -4 515
-18z m-170 -846 c245 -35 464 -131 660 -291 95 -76 100 -83 80 -103 -9 -9 -13
-21 -9 -27 4 -7 3 -9 -3 -6 -10 7 -133 -109 -133 -125 0 -4 -4 -8 -9 -8 -4 0
-37 -29 -72 -65 -66 -67 -87 -76 -110 -49 -31 37 -135 108 -212 144 -121 56
-185 71 -337 77 -116 5 -148 2 -215 -15 -121 -30 -186 -58 -271 -113 -186
-122 -311 -294 -370 -509 -23 -83 -25 -296 -5 -390 29 -134 97 -267 185 -366
48 -54 48 -55 30 -77 -41 -49 -293 -297 -302 -297 -10 0 -60 54 -109 115 -104
133 -204 345 -245 520 -19 76 -22 121 -22 290 -1 188 1 207 27 310 100 385
342 687 696 865 103 51 294 108 416 123 64 8 263 6 330 -3z m500 -755 c51 -55
105 -129 105 -144 0 -6 4 -11 8 -11 8 0 46 -72 48 -90 0 -3 11 -36 23 -75 43
-132 55 -275 31 -390 -6 -33 -13 -69 -14 -80 -1 -11 -5 -27 -8 -35 -4 -8 -9
-24 -11 -35 -20 -75 -104 -232 -151 -282 -12 -11 -37 -40 -56 -62 -19 -23 -40
-41 -46 -41 -7 0 -19 -11 -28 -25 -9 -14 -21 -25 -27 -25 -5 0 -23 -9 -39 -20
-17 -11 -43 -29 -59 -40 -38 -25 -98 -47 -181 -66 -36 -8 -74 -20 -85 -25 -33
-16 -309 -5 -385 15 -75 20 -168 55 -190 72 -8 6 -28 19 -45 27 -16 9 -46 30
-65 47 -19 17 -45 39 -58 47 -13 9 -27 24 -32 33 -14 25 12 33 37 12 98 -87
234 -158 358 -188 91 -21 300 -20 405 3 69 15 211 77 242 106 7 6 29 20 47 31
83 47 235 230 273 331 12 33 23 62 24 65 0 3 6 17 12 33 28 66 56 296 39 313
-4 4 -7 26 -7 50 0 23 -9 71 -20 106 -23 77 -97 238 -107 238 -5 0 -14 14 -22
32 -8 17 -29 48 -47 68 -29 32 -35 50 -16 50 3 0 24 -20 47 -45z m-3665 -761
c0 -27 -4 -43 -10 -39 -17 11 -11 85 7 85 2 0 3 -21 3 -46z m-43 -66 c-3 -7
-5 -2 -5 12 0 14 2 19 5 13 2 -7 2 -19 0 -25z m39 -46 c-12 -12 -18 8 -10 35
l8 28 4 -28 c2 -16 1 -31 -2 -35z m494 -416 c0 -8 -5 -18 -12 -22 -7 -5 -9 -2
-5 9 4 11 2 14 -9 10 -7 -3 -14 0 -14 6 0 6 9 11 20 11 11 0 20 -6 20 -14z
m80 -86 c0 -11 -5 -20 -11 -20 -6 0 -9 7 -6 14 4 10 1 13 -9 9 -7 -3 -14 0
-14 6 0 6 9 11 20 11 13 0 20 -7 20 -20z m170 -130 c0 -5 -7 -10 -15 -10 -8 0
-15 5 -15 10 0 6 7 10 15 10 8 0 15 -4 15 -10z m20 -51 c0 -5 -4 -9 -10 -9 -5
0 -10 7 -10 16 0 8 5 12 10 9 6 -3 10 -10 10 -16z m23 -59 c3 -11 1 -20 -4
-20 -5 0 -9 9 -9 20 0 11 2 20 4 20 2 0 6 -9 9 -20z"/>
<path d="M3682 6175 c0 -16 2 -22 5 -12 2 9 2 23 0 30 -3 6 -5 -1 -5 -18z"/>
<path d="M3928 5823 c6 -2 18 -2 25 0 6 3 1 5 -13 5 -14 0 -19 -2 -12 -5z"/>
<path d="M880 2750 c0 -5 5 -10 11 -10 5 0 7 5 4 10 -3 6 -8 10 -11 10 -2 0
-4 -4 -4 -10z"/>
<path d="M910 2720 c0 -5 5 -10 11 -10 5 0 7 5 4 10 -3 6 -8 10 -11 10 -2 0
-4 -4 -4 -10z"/>
<path d="M971 2614 c0 -11 3 -14 6 -6 3 7 2 16 -1 19 -3 4 -6 -2 -5 -13z"/>
</g>
</svg>
